<svg width="336" height="48" viewBox="0 0 336 48" fill="none" xmlns="http://www.w3.org/2000/svg">
<path d="M0.36 2.784C4.072 2.528 7.352 2.4 10.2 2.4C18.104 2.4 22.056 5.04 22.056 10.32C22.056 12.304 21.48 14.016 20.328 15.456C19.176 16.864 17.336 17.824 14.808 18.336C17.24 18.624 19.16 19.36 20.568 20.544C21.976 21.728 22.68 23.792 22.68 26.736C22.68 32.912 18.728 36 10.824 36H0.36V2.784ZM4.344 35.52H10.824C13.672 35.52 15.688 34.784 16.872 33.312C18.088 31.808 18.696 29.52 18.696 26.448C18.696 23.376 18.088 21.328 16.872 20.304C15.656 19.28 13.848 18.736 11.448 18.672H4.344V35.52ZM10.2 2.88C8.344 2.88 6.392 2.992 4.344 3.216V18.192H11.448C15.96 18 18.216 15.408 18.216 10.416C18.216 7.984 17.544 6.128 16.2 4.848C14.856 3.536 12.856 2.88 10.2 2.88ZM29.559 24.288C29.559 28.256 30.247 31.168 31.623 33.024C33.031 34.88 34.871 35.808 37.143 35.808C40.343 35.808 43.191 35.328 45.687 34.368L45.831 34.704C43.271 35.696 40.375 36.192 37.143 36.192C33.943 36.192 31.335 35.232 29.319 33.312C27.303 31.392 26.295 28.432 26.295 24.432C26.295 20.432 27.351 17.328 29.463 15.12C31.575 12.912 34.263 11.808 37.527 11.808C40.151 11.808 42.359 12.592 44.151 14.16C45.943 15.728 46.839 18.048 46.839 21.12C46.839 21.28 46.839 21.44 46.839 21.6H29.703C29.607 22.464 29.559 23.36 29.559 24.288ZM43.575 21.216C43.543 18.144 42.951 15.872 41.799 14.4C40.647 12.928 39.159 12.192 37.335 12.192C35.511 12.192 33.879 12.992 32.439 14.592C31.031 16.192 30.135 18.4 29.751 21.216H43.575ZM70.0721 36C67.8961 36 66.4081 35.584 65.6081 34.752C64.8721 34.048 64.5041 33.44 64.5041 32.928V31.92C62.9361 34.768 60.4241 36.192 56.9681 36.192C52.9361 36.192 50.6481 34.368 50.1041 30.72C50.0401 30.336 50.0081 29.952 50.0081 29.568C50.0081 29.152 50.0721 28.704 50.2001 28.224C50.3281 27.744 50.6961 27.216 51.3041 26.64C52.5201 25.488 55.1921 24.784 59.3201 24.528C60.3441 24.432 61.2881 24.384 62.1521 24.384C63.0161 24.384 63.8001 24.416 64.5041 24.48V16.512C64.4401 16.48 64.4401 16.336 64.5041 16.08C64.5681 15.792 64.5041 15.44 64.3121 15.024C64.1521 14.576 63.9281 14.144 63.6401 13.728C63.3521 13.312 62.8401 12.96 62.1041 12.672C61.3681 12.352 60.4081 12.192 59.2241 12.192C58.0401 12.192 56.6481 12.416 55.0481 12.864C53.4801 13.28 52.3281 13.696 51.5921 14.112L51.4001 13.776C54.2481 12.464 57.1441 11.808 60.0881 11.808C63.3841 11.808 65.5601 12.4 66.6161 13.584C67.4481 14.512 67.8641 15.488 67.8641 16.512V32.592C67.8641 33.52 68.0401 34.24 68.3921 34.752C68.7761 35.232 69.1601 35.488 69.5441 35.52L70.0721 35.616H71.5601V36H70.0721ZM57.7361 35.808C59.4321 35.808 60.9521 35.232 62.2961 34.08C63.6721 32.896 64.4081 31.76 64.5041 30.672V24.864C63.6401 24.8 62.7601 24.768 61.8641 24.768C61.0001 24.768 60.1361 24.816 59.2721 24.912C56.8401 25.2 55.2561 25.744 54.5201 26.544C53.7841 27.344 53.4161 28.448 53.4161 29.856C53.4161 30.112 53.4321 30.4 53.4641 30.72C53.7521 34.112 55.1761 35.808 57.7361 35.808ZM78.4988 30.48C78.4988 33.008 79.1708 34.624 80.5148 35.328C81.1548 35.648 81.9708 35.808 82.9628 35.808C84.9788 35.808 86.7708 35.04 88.3388 33.504C89.9388 31.968 90.8028 30.544 90.9308 29.232V12H94.2908V32.592C94.2908 33.52 94.4668 34.24 94.8188 34.752C95.2028 35.232 95.5868 35.488 95.9708 35.52L96.4988 35.616H97.9868V36H95.0588C93.7468 36 92.7388 35.712 92.0348 35.136C91.3628 34.56 91.0108 33.984 90.9788 33.408L90.9308 32.592V30.528C90.3548 31.904 89.3308 33.2 87.8588 34.416C86.3868 35.6 84.7708 36.192 83.0108 36.192C81.2828 36.192 79.8588 36.032 78.7388 35.712C77.6508 35.36 76.8668 34.88 76.3867 34.272C75.5548 33.28 75.1388 32 75.1388 30.432V12H78.4988V30.48ZM100.164 12.384V12H101.172V7.2H104.532V12H111.876V12.384H104.532V29.856C104.532 31.936 104.756 33.44 105.204 34.368C105.684 35.296 106.66 35.76 108.132 35.76C109.636 35.76 111.156 35.456 112.692 34.848L112.836 35.232C111.236 35.84 109.396 36.144 107.316 36.144C105.268 36.144 103.732 35.728 102.708 34.896C101.684 34.032 101.172 32.336 101.172 29.808V12.384H100.164ZM121.402 44.592C120.378 46.864 119.114 48 117.61 48C116.938 48 116.154 47.888 115.258 47.664V47.28C115.994 47.472 116.65 47.568 117.226 47.568C118.858 47.568 120.106 46.576 120.97 44.592L125.002 36H124.954L116.026 12H119.386L126.826 32.016L134.17 16.8C134.554 16.128 134.746 15.328 134.746 14.4C134.746 13.472 134.49 12.768 133.978 12.288L134.266 12C134.394 12.064 134.554 12.256 134.746 12.576C134.97 12.896 135.098 13.184 135.13 13.44C135.194 13.696 135.226 13.936 135.226 14.16C135.226 15.024 135.034 15.904 134.65 16.8L125.434 36L121.402 44.592ZM157.994 4.416C155.082 3.296 152.33 2.736 149.738 2.736C147.178 2.736 145.178 3.28 143.738 4.368C142.298 5.456 141.578 6.96 141.578 8.88C141.578 11.216 142.794 13.024 145.226 14.304C146.314 14.848 147.498 15.36 148.778 15.84C150.09 16.288 151.402 16.8 152.714 17.376C154.026 17.952 155.226 18.608 156.314 19.344C157.402 20.08 158.282 21.104 158.954 22.416C159.626 23.696 159.962 25.344 159.962 27.36C159.962 29.344 159.402 31.04 158.282 32.448C157.162 33.856 155.802 34.816 154.202 35.328C152.634 35.808 150.794 36.048 148.682 36.048C144.746 36.048 141.386 35.072 138.602 33.12L138.842 32.736C139.898 33.568 141.258 34.256 142.922 34.8C144.618 35.312 146.346 35.568 148.106 35.568C150.698 35.568 152.906 34.976 154.73 33.792C156.586 32.576 157.514 30.8 157.514 28.464C157.514 25.904 156.298 23.904 153.866 22.464C152.778 21.824 151.578 21.232 150.266 20.688C148.986 20.144 147.69 19.584 146.378 19.008C145.066 18.4 143.866 17.728 142.778 16.992C140.346 15.392 139.13 13.12 139.13 10.176C139.13 7.84 139.914 5.952 141.482 4.512C143.05 3.04 145.402 2.304 148.538 2.304C151.706 2.304 154.922 2.848 158.186 3.936L157.994 4.416ZM174.777 12.192C172.505 12.192 170.601 13.28 169.065 15.456C167.561 17.632 166.809 20.64 166.809 24.48C166.809 28.32 167.497 31.168 168.873 33.024C170.281 34.88 172.121 35.808 174.393 35.808C177.241 35.808 179.769 35.328 181.977 34.368L182.121 34.704C179.849 35.696 177.193 36.192 174.153 36.192C171.113 36.192 168.585 35.232 166.569 33.312C164.553 31.392 163.545 28.432 163.545 24.432C163.545 20.432 164.601 17.328 166.713 15.12C168.825 12.912 171.513 11.808 174.777 11.808C176.601 11.808 178.281 12.224 179.817 13.056C181.385 13.888 182.537 15.152 183.273 16.848H180.201C179.721 15.28 178.985 14.112 177.993 13.344C177.033 12.576 175.961 12.192 174.777 12.192ZM206.814 36C205.502 36 204.494 35.712 203.79 35.136C203.118 34.56 202.766 33.984 202.734 33.408L202.686 32.592V17.52C202.686 14.992 202.014 13.376 200.67 12.672C200.03 12.352 199.214 12.192 198.222 12.192C196.238 12.192 194.446 13.008 192.846 14.64C191.278 16.24 190.494 17.68 190.494 18.96V36H187.134V0.0479994H190.494V17.472C191.006 16.096 191.982 14.816 193.422 13.632C194.862 12.416 196.478 11.808 198.27 11.808C201.374 11.808 203.438 12.352 204.462 13.44C205.518 14.496 206.046 15.872 206.046 17.568V32.592C206.046 33.52 206.222 34.24 206.574 34.752C206.958 35.232 207.326 35.488 207.678 35.52L208.254 35.616H209.742V36H206.814ZM215.653 24.288C215.653 28.256 216.341 31.168 217.717 33.024C219.125 34.88 220.965 35.808 223.237 35.808C226.437 35.808 229.285 35.328 231.781 34.368L231.925 34.704C229.365 35.696 226.469 36.192 223.237 36.192C220.037 36.192 217.429 35.232 215.413 33.312C213.397 31.392 212.389 28.432 212.389 24.432C212.389 20.432 213.445 17.328 215.557 15.12C217.669 12.912 220.357 11.808 223.621 11.808C226.245 11.808 228.453 12.592 230.245 14.16C232.037 15.728 232.933 18.048 232.933 21.12C232.933 21.28 232.933 21.44 232.933 21.6H215.797C215.701 22.464 215.653 23.36 215.653 24.288ZM229.669 21.216C229.637 18.144 229.045 15.872 227.893 14.4C226.741 12.928 225.253 12.192 223.429 12.192C221.605 12.192 219.973 12.992 218.533 14.592C217.125 16.192 216.229 18.4 215.845 21.216H229.669ZM236.342 24.864C236.342 20.704 237.35 17.488 239.366 15.216C241.382 12.944 244.406 11.808 248.438 11.808C250.326 11.808 252.23 12.288 254.15 13.248V0.0479994H257.51V32.592C257.51 33.52 257.686 34.24 258.038 34.752C258.422 35.232 258.806 35.488 259.19 35.52L259.718 35.616H261.206V36H258.278C256.966 36 255.958 35.712 255.254 35.136C254.582 34.56 254.23 33.984 254.198 33.408L254.15 32.592V31.824C253.542 32.944 252.534 33.936 251.126 34.8C249.718 35.664 248.054 36.096 246.134 36.096C239.606 35.936 236.342 32.192 236.342 24.864ZM246.182 35.712C248.326 35.712 250.166 35.136 251.702 33.984C253.238 32.832 254.054 31.696 254.15 30.576V13.68C251.878 12.688 249.926 12.192 248.294 12.192C245.446 12.192 243.302 13.312 241.862 15.552C240.422 17.76 239.702 20.864 239.702 24.864C239.702 32.096 241.862 35.712 246.182 35.712ZM268.389 30.48C268.389 33.008 269.061 34.624 270.405 35.328C271.045 35.648 271.861 35.808 272.853 35.808C274.869 35.808 276.661 35.04 278.229 33.504C279.829 31.968 280.693 30.544 280.821 29.232V12H284.181V32.592C284.181 33.52 284.357 34.24 284.709 34.752C285.093 35.232 285.477 35.488 285.861 35.52L286.389 35.616H287.877V36H284.949C283.637 36 282.629 35.712 281.925 35.136C281.253 34.56 280.901 33.984 280.869 33.408L280.821 32.592V30.528C280.245 31.904 279.221 33.2 277.749 34.416C276.277 35.6 274.661 36.192 272.901 36.192C271.173 36.192 269.749 36.032 268.629 35.712C267.541 35.36 266.757 34.88 266.277 34.272C265.445 33.28 265.029 32 265.029 30.432V12H268.389V30.48ZM296.391 36C293.575 36 291.799 35.264 291.063 33.792C290.903 33.472 290.823 33.184 290.823 32.928V0.0479994H294.183V32.592C294.183 33.52 294.359 34.24 294.711 34.752C295.095 35.232 295.479 35.488 295.863 35.52L296.391 35.616H297.879V36H296.391ZM302.372 24.288C302.372 28.256 303.06 31.168 304.436 33.024C305.844 34.88 307.684 35.808 309.956 35.808C313.156 35.808 316.004 35.328 318.5 34.368L318.644 34.704C316.084 35.696 313.188 36.192 309.956 36.192C306.756 36.192 304.148 35.232 302.132 33.312C300.116 31.392 299.108 28.432 299.108 24.432C299.108 20.432 300.164 17.328 302.276 15.12C304.388 12.912 307.076 11.808 310.34 11.808C312.964 11.808 315.172 12.592 316.964 14.16C318.756 15.728 319.652 18.048 319.652 21.12C319.652 21.28 319.652 21.44 319.652 21.6H302.516C302.42 22.464 302.372 23.36 302.372 24.288ZM316.388 21.216C316.356 18.144 315.764 15.872 314.612 14.4C313.46 12.928 311.972 12.192 310.148 12.192C308.324 12.192 306.692 12.992 305.252 14.592C303.844 16.192 302.948 18.4 302.564 21.216H316.388ZM330.776 14.064V13.056C329.336 13.632 328.024 14.8 326.84 16.56C325.656 18.288 325.032 19.92 324.968 21.456V36H321.608V12H324.968V19.632C325.48 17.776 326.456 16.032 327.896 14.4C329.336 12.736 330.968 11.872 332.792 11.808H332.984C333.624 11.808 334.152 12.032 334.568 12.48C335.016 12.896 335.24 13.424 335.24 14.064C335.24 14.704 335.016 15.232 334.568 15.648C334.152 16.064 333.624 16.272 332.984 16.272C332.344 16.272 331.816 16.064 331.4 15.648C330.984 15.232 330.776 14.704 330.776 14.064Z" fill="#999591"/>
</svg>
